M48
; DRILL file {KiCad 8.0.4} date 2024-08-16T07:58:49+0200
; FORMAT={-:-/ absolute / inch / decimal}
; #@! TF.CreationDate,2024-08-16T07:58:49+02:00
; #@! TF.GenerationSoftware,Kicad,Pcbnew,8.0.4
; #@! TF.FileFunction,Plated,1,2,PTH
FMAT,2
INCH
; #@! TA.AperFunction,Plated,PTH,ViaDrill
T1C0.0039
; #@! TA.AperFunction,Plated,PTH,ViaDrill
T2C0.0118
; #@! TA.AperFunction,Plated,PTH,ComponentDrill
T3C0.0394
; #@! TA.AperFunction,Plated,PTH,ComponentDrill
T4C0.0472
; #@! TA.AperFunction,Plated,PTH,ComponentDrill
T5C0.0500
%
G90
G05
T1
X2.6575Y-2.0079
X3.0906Y-2.2244
T2
X2.4803Y-2.3622
X2.4803Y-2.5984
X2.4803Y-2.9724
X2.5197Y-1.122
X2.5197Y-3.3858
X2.5197Y-3.6024
X2.6575Y-1.2205
X2.6575Y-3.2874
X2.7165Y-2.4803
X2.7165Y-2.874
X2.7362Y-3.1299
X2.7953Y-1.122
X2.8937Y-3.0118
X2.9528Y-1.2205
X3.0118Y-3.5827
X3.0512Y-3.2874
X3.1102Y-1.122
X3.1102Y-2.8543
X3.2283Y-1.2205
X3.248Y-2.0866
X3.2677Y-3.3661
X3.3071Y-3.622
X3.3268Y-1.9291
X3.3268Y-2.9921
X3.3465Y-2.3819
X3.3465Y-2.7559
X3.4055Y-1.122
X3.4055Y-2.0079
X3.4252Y-1.7913
X3.5039Y-1.2205
X3.5039Y-2.0866
X3.5039Y-3.1693
X3.5236Y-1.6535
X3.5236Y-1.9094
X3.5236Y-2.8937
X3.5236Y-3.5236
X3.5433Y-2.6181
T3
X3.3252Y-1.4764
X3.4252Y-1.4764
X3.5252Y-1.4764
T4
X2.5787Y-1.5236
X2.5787Y-1.7205
X2.6772Y-1.5236
X2.6772Y-1.7205
X2.9429Y-1.5236
X2.9429Y-1.7205
X3.0413Y-1.5236
X3.0413Y-1.7205
T5
X2.6087Y-2.3559
X2.6087Y-2.4559
X2.6087Y-2.5559
X2.6087Y-2.6559
X2.6087Y-2.7559
X2.6087Y-2.8559
X2.6087Y-2.9559
X2.6087Y-3.0559
X2.6087Y-3.1559
X3.2087Y-2.3476
X3.2087Y-2.4559
X3.2087Y-2.5559
X3.2087Y-2.6559
X3.2087Y-2.7559
X3.2087Y-2.8559
X3.2087Y-2.9559
X3.2087Y-3.0559
X3.2087Y-3.1559
M30
