%TF.GenerationSoftware,KiCad,Pcbnew,8.0.4*%
%TF.CreationDate,2024-08-15T17:47:52+02:00*%
%TF.ProjectId,Fingerprint_doorbell,46696e67-6572-4707-9269-6e745f646f6f,rev?*%
%TF.SameCoordinates,Original*%
%TF.FileFunction,Soldermask,Top*%
%TF.FilePolarity,Negative*%
%FSLAX46Y46*%
G04 Gerber Fmt 4.6, Leading zero omitted, Abs format (unit mm)*
G04 Created by KiCad (PCBNEW 8.0.4) date 2024-08-15 17:47:52*
%MOMM*%
%LPD*%
G01*
G04 APERTURE LIST*
G04 Aperture macros list*
%AMRoundRect*
0 Rectangle with rounded corners*
0 $1 Rounding radius*
0 $2 $3 $4 $5 $6 $7 $8 $9 X,Y pos of 4 corners*
0 Add a 4 corners polygon primitive as box body*
4,1,4,$2,$3,$4,$5,$6,$7,$8,$9,$2,$3,0*
0 Add four circle primitives for the rounded corners*
1,1,$1+$1,$2,$3*
1,1,$1+$1,$4,$5*
1,1,$1+$1,$6,$7*
1,1,$1+$1,$8,$9*
0 Add four rect primitives between the rounded corners*
20,1,$1+$1,$2,$3,$4,$5,0*
20,1,$1+$1,$4,$5,$6,$7,0*
20,1,$1+$1,$6,$7,$8,$9,0*
20,1,$1+$1,$8,$9,$2,$3,0*%
%AMFreePoly0*
4,1,6,1.000000,0.000000,0.500000,-0.750000,-0.500000,-0.750000,-0.500000,0.750000,0.500000,0.750000,1.000000,0.000000,1.000000,0.000000,$1*%
G04 Aperture macros list end*
%ADD10R,2.000000X1.780000*%
%ADD11R,1.700000X1.700000*%
%ADD12O,1.700000X1.700000*%
%ADD13R,1.800000X3.000000*%
%ADD14O,1.800000X3.000000*%
%ADD15FreePoly0,270.000000*%
%ADD16FreePoly0,90.000000*%
%ADD17R,1.500000X1.500000*%
%ADD18RoundRect,0.250000X-0.350000X-0.650000X0.350000X-0.650000X0.350000X0.650000X-0.350000X0.650000X0*%
%ADD19RoundRect,0.150000X-0.150000X-0.625000X0.150000X-0.625000X0.150000X0.625000X-0.150000X0.625000X0*%
%ADD20C,2.109000*%
G04 APERTURE END LIST*
D10*
%TO.C,U2*%
X64235000Y-50730000D03*
X64235000Y-53270000D03*
X73765000Y-53270000D03*
X73765000Y-50730000D03*
%TD*%
D11*
%TO.C,J4*%
X89540000Y-37500000D03*
D12*
X87000000Y-37500000D03*
X84460000Y-37500000D03*
%TD*%
D13*
%TO.C,J3*%
X74750000Y-38700000D03*
X74750000Y-43700000D03*
D14*
X77250000Y-38700000D03*
X77250000Y-43700000D03*
%TD*%
D13*
%TO.C,J2*%
X65500000Y-38700000D03*
X65500000Y-43700000D03*
D14*
X68000000Y-38700000D03*
X68000000Y-43700000D03*
%TD*%
D15*
%TO.C,JP2*%
X71500000Y-60500000D03*
D16*
X71500000Y-64500000D03*
D17*
X71500000Y-61300000D03*
X71500000Y-63700000D03*
%TD*%
D15*
%TO.C,JP1*%
X75000000Y-60500000D03*
D16*
X75000000Y-64500000D03*
D17*
X75000000Y-61300000D03*
X75000000Y-63700000D03*
%TD*%
D18*
%TO.C,J1*%
X76300000Y-87800000D03*
X68700000Y-87800000D03*
D19*
X75000000Y-90325000D03*
X74000000Y-90325000D03*
X73000000Y-90325000D03*
X72000000Y-90325000D03*
X71000000Y-90325000D03*
X70000000Y-90325000D03*
%TD*%
D20*
%TO.C,U1*%
X66260000Y-67460000D03*
X66260000Y-70000000D03*
X66260000Y-72540000D03*
X66260000Y-64920000D03*
X66260000Y-75080000D03*
X66260000Y-77620000D03*
X66260000Y-59840000D03*
X66260000Y-80160000D03*
X81500000Y-80160000D03*
X81500000Y-77620000D03*
X81500000Y-75080000D03*
X81500000Y-72540000D03*
X81500000Y-70000000D03*
X81500000Y-67460000D03*
X81500000Y-64920000D03*
X66260000Y-62380000D03*
X81500000Y-62380000D03*
X81500000Y-59630000D03*
%TD*%
M02*
