%TF.GenerationSoftware,KiCad,Pcbnew,8.0.4*%
%TF.CreationDate,2024-08-15T17:47:52+02:00*%
%TF.ProjectId,Fingerprint_doorbell,46696e67-6572-4707-9269-6e745f646f6f,rev?*%
%TF.SameCoordinates,Original*%
%TF.FileFunction,Legend,Top*%
%TF.FilePolarity,Positive*%
%FSLAX46Y46*%
G04 Gerber Fmt 4.6, Leading zero omitted, Abs format (unit mm)*
G04 Created by KiCad (PCBNEW 8.0.4) date 2024-08-15 17:47:52*
%MOMM*%
%LPD*%
G01*
G04 APERTURE LIST*
%ADD10C,0.100000*%
%ADD11C,0.150000*%
%ADD12C,0.120000*%
%ADD13C,0.127000*%
G04 APERTURE END LIST*
D10*
X80860000Y-35900000D02*
X91460000Y-35900000D01*
X91460000Y-56100000D01*
X80860000Y-56100000D01*
X80860000Y-35900000D01*
D11*
X68238095Y-47854819D02*
X68238095Y-48664342D01*
X68238095Y-48664342D02*
X68285714Y-48759580D01*
X68285714Y-48759580D02*
X68333333Y-48807200D01*
X68333333Y-48807200D02*
X68428571Y-48854819D01*
X68428571Y-48854819D02*
X68619047Y-48854819D01*
X68619047Y-48854819D02*
X68714285Y-48807200D01*
X68714285Y-48807200D02*
X68761904Y-48759580D01*
X68761904Y-48759580D02*
X68809523Y-48664342D01*
X68809523Y-48664342D02*
X68809523Y-47854819D01*
X69238095Y-47950057D02*
X69285714Y-47902438D01*
X69285714Y-47902438D02*
X69380952Y-47854819D01*
X69380952Y-47854819D02*
X69619047Y-47854819D01*
X69619047Y-47854819D02*
X69714285Y-47902438D01*
X69714285Y-47902438D02*
X69761904Y-47950057D01*
X69761904Y-47950057D02*
X69809523Y-48045295D01*
X69809523Y-48045295D02*
X69809523Y-48140533D01*
X69809523Y-48140533D02*
X69761904Y-48283390D01*
X69761904Y-48283390D02*
X69190476Y-48854819D01*
X69190476Y-48854819D02*
X69809523Y-48854819D01*
X91764819Y-37833333D02*
X92479104Y-37833333D01*
X92479104Y-37833333D02*
X92621961Y-37880952D01*
X92621961Y-37880952D02*
X92717200Y-37976190D01*
X92717200Y-37976190D02*
X92764819Y-38119047D01*
X92764819Y-38119047D02*
X92764819Y-38214285D01*
X92098152Y-36928571D02*
X92764819Y-36928571D01*
X91717200Y-37166666D02*
X92431485Y-37404761D01*
X92431485Y-37404761D02*
X92431485Y-36785714D01*
X75666666Y-34894819D02*
X75666666Y-35609104D01*
X75666666Y-35609104D02*
X75619047Y-35751961D01*
X75619047Y-35751961D02*
X75523809Y-35847200D01*
X75523809Y-35847200D02*
X75380952Y-35894819D01*
X75380952Y-35894819D02*
X75285714Y-35894819D01*
X76047619Y-34894819D02*
X76666666Y-34894819D01*
X76666666Y-34894819D02*
X76333333Y-35275771D01*
X76333333Y-35275771D02*
X76476190Y-35275771D01*
X76476190Y-35275771D02*
X76571428Y-35323390D01*
X76571428Y-35323390D02*
X76619047Y-35371009D01*
X76619047Y-35371009D02*
X76666666Y-35466247D01*
X76666666Y-35466247D02*
X76666666Y-35704342D01*
X76666666Y-35704342D02*
X76619047Y-35799580D01*
X76619047Y-35799580D02*
X76571428Y-35847200D01*
X76571428Y-35847200D02*
X76476190Y-35894819D01*
X76476190Y-35894819D02*
X76190476Y-35894819D01*
X76190476Y-35894819D02*
X76095238Y-35847200D01*
X76095238Y-35847200D02*
X76047619Y-35799580D01*
X66416666Y-34894819D02*
X66416666Y-35609104D01*
X66416666Y-35609104D02*
X66369047Y-35751961D01*
X66369047Y-35751961D02*
X66273809Y-35847200D01*
X66273809Y-35847200D02*
X66130952Y-35894819D01*
X66130952Y-35894819D02*
X66035714Y-35894819D01*
X66845238Y-34990057D02*
X66892857Y-34942438D01*
X66892857Y-34942438D02*
X66988095Y-34894819D01*
X66988095Y-34894819D02*
X67226190Y-34894819D01*
X67226190Y-34894819D02*
X67321428Y-34942438D01*
X67321428Y-34942438D02*
X67369047Y-34990057D01*
X67369047Y-34990057D02*
X67416666Y-35085295D01*
X67416666Y-35085295D02*
X67416666Y-35180533D01*
X67416666Y-35180533D02*
X67369047Y-35323390D01*
X67369047Y-35323390D02*
X66797619Y-35894819D01*
X66797619Y-35894819D02*
X67416666Y-35894819D01*
X69179819Y-62608333D02*
X69894104Y-62608333D01*
X69894104Y-62608333D02*
X70036961Y-62655952D01*
X70036961Y-62655952D02*
X70132200Y-62751190D01*
X70132200Y-62751190D02*
X70179819Y-62894047D01*
X70179819Y-62894047D02*
X70179819Y-62989285D01*
X70179819Y-62132142D02*
X69179819Y-62132142D01*
X69179819Y-62132142D02*
X69179819Y-61751190D01*
X69179819Y-61751190D02*
X69227438Y-61655952D01*
X69227438Y-61655952D02*
X69275057Y-61608333D01*
X69275057Y-61608333D02*
X69370295Y-61560714D01*
X69370295Y-61560714D02*
X69513152Y-61560714D01*
X69513152Y-61560714D02*
X69608390Y-61608333D01*
X69608390Y-61608333D02*
X69656009Y-61655952D01*
X69656009Y-61655952D02*
X69703628Y-61751190D01*
X69703628Y-61751190D02*
X69703628Y-62132142D01*
X69275057Y-61179761D02*
X69227438Y-61132142D01*
X69227438Y-61132142D02*
X69179819Y-61036904D01*
X69179819Y-61036904D02*
X69179819Y-60798809D01*
X69179819Y-60798809D02*
X69227438Y-60703571D01*
X69227438Y-60703571D02*
X69275057Y-60655952D01*
X69275057Y-60655952D02*
X69370295Y-60608333D01*
X69370295Y-60608333D02*
X69465533Y-60608333D01*
X69465533Y-60608333D02*
X69608390Y-60655952D01*
X69608390Y-60655952D02*
X70179819Y-61227380D01*
X70179819Y-61227380D02*
X70179819Y-60608333D01*
X70954819Y-59433332D02*
X70954819Y-58814285D01*
X70954819Y-58814285D02*
X71335771Y-59147618D01*
X71335771Y-59147618D02*
X71335771Y-59004761D01*
X71335771Y-59004761D02*
X71383390Y-58909523D01*
X71383390Y-58909523D02*
X71431009Y-58861904D01*
X71431009Y-58861904D02*
X71526247Y-58814285D01*
X71526247Y-58814285D02*
X71764342Y-58814285D01*
X71764342Y-58814285D02*
X71859580Y-58861904D01*
X71859580Y-58861904D02*
X71907200Y-58909523D01*
X71907200Y-58909523D02*
X71954819Y-59004761D01*
X71954819Y-59004761D02*
X71954819Y-59290475D01*
X71954819Y-59290475D02*
X71907200Y-59385713D01*
X71907200Y-59385713D02*
X71859580Y-59433332D01*
X71954819Y-65564285D02*
X71954819Y-66135713D01*
X71954819Y-65849999D02*
X70954819Y-65849999D01*
X70954819Y-65849999D02*
X71097676Y-65945237D01*
X71097676Y-65945237D02*
X71192914Y-66040475D01*
X71192914Y-66040475D02*
X71240533Y-66135713D01*
X72679819Y-62608333D02*
X73394104Y-62608333D01*
X73394104Y-62608333D02*
X73536961Y-62655952D01*
X73536961Y-62655952D02*
X73632200Y-62751190D01*
X73632200Y-62751190D02*
X73679819Y-62894047D01*
X73679819Y-62894047D02*
X73679819Y-62989285D01*
X73679819Y-62132142D02*
X72679819Y-62132142D01*
X72679819Y-62132142D02*
X72679819Y-61751190D01*
X72679819Y-61751190D02*
X72727438Y-61655952D01*
X72727438Y-61655952D02*
X72775057Y-61608333D01*
X72775057Y-61608333D02*
X72870295Y-61560714D01*
X72870295Y-61560714D02*
X73013152Y-61560714D01*
X73013152Y-61560714D02*
X73108390Y-61608333D01*
X73108390Y-61608333D02*
X73156009Y-61655952D01*
X73156009Y-61655952D02*
X73203628Y-61751190D01*
X73203628Y-61751190D02*
X73203628Y-62132142D01*
X73679819Y-60608333D02*
X73679819Y-61179761D01*
X73679819Y-60894047D02*
X72679819Y-60894047D01*
X72679819Y-60894047D02*
X72822676Y-60989285D01*
X72822676Y-60989285D02*
X72917914Y-61084523D01*
X72917914Y-61084523D02*
X72965533Y-61179761D01*
X74454819Y-59433332D02*
X74454819Y-58814285D01*
X74454819Y-58814285D02*
X74835771Y-59147618D01*
X74835771Y-59147618D02*
X74835771Y-59004761D01*
X74835771Y-59004761D02*
X74883390Y-58909523D01*
X74883390Y-58909523D02*
X74931009Y-58861904D01*
X74931009Y-58861904D02*
X75026247Y-58814285D01*
X75026247Y-58814285D02*
X75264342Y-58814285D01*
X75264342Y-58814285D02*
X75359580Y-58861904D01*
X75359580Y-58861904D02*
X75407200Y-58909523D01*
X75407200Y-58909523D02*
X75454819Y-59004761D01*
X75454819Y-59004761D02*
X75454819Y-59290475D01*
X75454819Y-59290475D02*
X75407200Y-59385713D01*
X75407200Y-59385713D02*
X75359580Y-59433332D01*
X75454819Y-65564285D02*
X75454819Y-66135713D01*
X75454819Y-65849999D02*
X74454819Y-65849999D01*
X74454819Y-65849999D02*
X74597676Y-65945237D01*
X74597676Y-65945237D02*
X74692914Y-66040475D01*
X74692914Y-66040475D02*
X74740533Y-66135713D01*
X72166666Y-85154819D02*
X72166666Y-85869104D01*
X72166666Y-85869104D02*
X72119047Y-86011961D01*
X72119047Y-86011961D02*
X72023809Y-86107200D01*
X72023809Y-86107200D02*
X71880952Y-86154819D01*
X71880952Y-86154819D02*
X71785714Y-86154819D01*
X73166666Y-86154819D02*
X72595238Y-86154819D01*
X72880952Y-86154819D02*
X72880952Y-85154819D01*
X72880952Y-85154819D02*
X72785714Y-85297676D01*
X72785714Y-85297676D02*
X72690476Y-85392914D01*
X72690476Y-85392914D02*
X72595238Y-85440533D01*
X63618095Y-56204819D02*
X63618095Y-57014342D01*
X63618095Y-57014342D02*
X63665714Y-57109580D01*
X63665714Y-57109580D02*
X63713333Y-57157200D01*
X63713333Y-57157200D02*
X63808571Y-57204819D01*
X63808571Y-57204819D02*
X63999047Y-57204819D01*
X63999047Y-57204819D02*
X64094285Y-57157200D01*
X64094285Y-57157200D02*
X64141904Y-57109580D01*
X64141904Y-57109580D02*
X64189523Y-57014342D01*
X64189523Y-57014342D02*
X64189523Y-56204819D01*
X65189523Y-57204819D02*
X64618095Y-57204819D01*
X64903809Y-57204819D02*
X64903809Y-56204819D01*
X64903809Y-56204819D02*
X64808571Y-56347676D01*
X64808571Y-56347676D02*
X64713333Y-56442914D01*
X64713333Y-56442914D02*
X64618095Y-56490533D01*
D12*
%TO.C,U2*%
X65765000Y-49400000D02*
X65765000Y-54600000D01*
X65765000Y-54600000D02*
X72235000Y-54600000D01*
X68000000Y-49400000D02*
X65765000Y-49400000D01*
X72235000Y-49400000D02*
X70000000Y-49400000D01*
X72235000Y-54600000D02*
X72235000Y-49400000D01*
X70000000Y-49400000D02*
G75*
G02*
X68000000Y-49400000I-1000000J0D01*
G01*
%TO.C,J4*%
X88270000Y-36170000D02*
X83130000Y-36170000D01*
X88270000Y-36170000D02*
X88270000Y-38830000D01*
X83130000Y-36170000D02*
X83130000Y-38830000D01*
X90870000Y-37500000D02*
X90870000Y-38830000D01*
X90870000Y-38830000D02*
X89540000Y-38830000D01*
X88270000Y-38830000D02*
X83130000Y-38830000D01*
%TO.C,J3*%
X72100000Y-44560000D02*
X72100000Y-46800000D01*
X72100000Y-46800000D02*
X74100000Y-46800000D01*
X72340000Y-36440000D02*
X72340000Y-46560000D01*
X72340000Y-36440000D02*
X79660000Y-36440000D01*
X72340000Y-46560000D02*
X79660000Y-46560000D01*
X79660000Y-36440000D02*
X79660000Y-46560000D01*
%TO.C,J2*%
X62850000Y-44560000D02*
X62850000Y-46800000D01*
X62850000Y-46800000D02*
X64850000Y-46800000D01*
X63090000Y-36440000D02*
X63090000Y-46560000D01*
X63090000Y-36440000D02*
X70410000Y-36440000D01*
X63090000Y-46560000D02*
X70410000Y-46560000D01*
X70410000Y-36440000D02*
X70410000Y-46560000D01*
%TO.C,JP2*%
X72450000Y-59750000D02*
X72450000Y-65250000D01*
X70500000Y-59750000D02*
X72450000Y-59750000D01*
X72450000Y-65250000D02*
X70500000Y-65250000D01*
X70500000Y-65250000D02*
X70500000Y-59750000D01*
%TO.C,JP1*%
X75950000Y-59750000D02*
X75950000Y-65250000D01*
X74000000Y-59750000D02*
X75950000Y-59750000D01*
X75950000Y-65250000D02*
X74000000Y-65250000D01*
X74000000Y-65250000D02*
X74000000Y-59750000D01*
%TO.C,J1*%
X76610000Y-90110000D02*
X75560000Y-90110000D01*
X76610000Y-88960000D02*
X76610000Y-90110000D01*
X69560000Y-86990000D02*
X75440000Y-86990000D01*
X69440000Y-90110000D02*
X69440000Y-91100000D01*
X68390000Y-90110000D02*
X69440000Y-90110000D01*
X68390000Y-88960000D02*
X68390000Y-90110000D01*
D13*
%TO.C,U1*%
X64880000Y-81750000D02*
X64880000Y-58250000D01*
X69520000Y-57250000D02*
X69520000Y-58250000D01*
X69520000Y-58250000D02*
X64880000Y-58250000D01*
X78240000Y-57250000D02*
X69520000Y-57250000D01*
X78240000Y-57250000D02*
X78240000Y-58250000D01*
X82880000Y-58250000D02*
X78240000Y-58250000D01*
X82880000Y-81750000D02*
X64880000Y-81750000D01*
X82880000Y-81750000D02*
X82880000Y-58250000D01*
%TD*%
M02*
