%TF.GenerationSoftware,KiCad,Pcbnew,8.0.4*%
%TF.CreationDate,2024-08-15T17:47:52+02:00*%
%TF.ProjectId,Fingerprint_doorbell,46696e67-6572-4707-9269-6e745f646f6f,rev?*%
%TF.SameCoordinates,Original*%
%TF.FileFunction,Copper,L2,Bot*%
%TF.FilePolarity,Positive*%
%FSLAX46Y46*%
G04 Gerber Fmt 4.6, Leading zero omitted, Abs format (unit mm)*
G04 Created by KiCad (PCBNEW 8.0.4) date 2024-08-15 17:47:52*
%MOMM*%
%LPD*%
G01*
G04 APERTURE LIST*
%TA.AperFunction,ComponentPad*%
%ADD10R,1.700000X1.700000*%
%TD*%
%TA.AperFunction,ComponentPad*%
%ADD11O,1.700000X1.700000*%
%TD*%
%TA.AperFunction,ComponentPad*%
%ADD12R,1.800000X3.000000*%
%TD*%
%TA.AperFunction,ComponentPad*%
%ADD13O,1.800000X3.000000*%
%TD*%
%TA.AperFunction,ComponentPad*%
%ADD14C,1.905000*%
%TD*%
%TA.AperFunction,ViaPad*%
%ADD15C,0.300000*%
%TD*%
%TA.AperFunction,ViaPad*%
%ADD16C,0.600000*%
%TD*%
%TA.AperFunction,Conductor*%
%ADD17C,0.200000*%
%TD*%
G04 APERTURE END LIST*
D10*
%TO.P,J4,1,Pin_1*%
%TO.N,/24V*%
X89540000Y-37500000D03*
D11*
%TO.P,J4,2,Pin_2*%
%TO.N,/GND*%
X87000000Y-37500000D03*
%TO.P,J4,3,Pin_3*%
%TO.N,/5V*%
X84460000Y-37500000D03*
%TD*%
D12*
%TO.P,J3,1,Pin_1*%
%TO.N,Net-(J3-Pin_1)*%
X74750000Y-38700000D03*
X74750000Y-43700000D03*
D13*
%TO.P,J3,2,Pin_2*%
%TO.N,Net-(J3-Pin_2)*%
X77250000Y-38700000D03*
X77250000Y-43700000D03*
%TD*%
D12*
%TO.P,J2,1,Pin_1*%
%TO.N,/24V*%
X65500000Y-38700000D03*
X65500000Y-43700000D03*
D13*
%TO.P,J2,2,Pin_2*%
%TO.N,/GND*%
X68000000Y-38700000D03*
X68000000Y-43700000D03*
%TD*%
D14*
%TO.P,U1,1,GPIO1*%
%TO.N,unconnected-(U1-GPIO1-Pad1)*%
X66260000Y-67460000D03*
%TO.P,U1,2,GPIO2*%
%TO.N,unconnected-(U1-GPIO2-Pad2)*%
X66260000Y-70000000D03*
%TO.P,U1,3,GPIO3*%
%TO.N,unconnected-(U1-GPIO3-Pad3)*%
X66260000Y-72540000D03*
%TO.P,U1,3.3,3V3*%
%TO.N,/3v3*%
X66260000Y-64920000D03*
%TO.P,U1,4,GPIO4*%
%TO.N,unconnected-(U1-GPIO4-Pad4)*%
X66260000Y-75080000D03*
%TO.P,U1,5,GPIO5*%
%TO.N,unconnected-(U1-GPIO5-Pad5)*%
X66260000Y-77620000D03*
%TO.P,U1,5V,5V*%
%TO.N,/5V*%
X66260000Y-59840000D03*
%TO.P,U1,6,GPIO6*%
%TO.N,unconnected-(U1-GPIO6-Pad6)*%
X66260000Y-80160000D03*
%TO.P,U1,7,GPIO7*%
%TO.N,unconnected-(U1-GPIO7-Pad7)*%
X81500000Y-80160000D03*
%TO.P,U1,8,GPIO8*%
%TO.N,Net-(J1-Pin_4)*%
X81500000Y-77620000D03*
%TO.P,U1,9,GPIO9*%
%TO.N,Net-(J1-Pin_3)*%
X81500000Y-75080000D03*
%TO.P,U1,10,GPIO10*%
%TO.N,Net-(J1-Pin_5)*%
X81500000Y-72540000D03*
%TO.P,U1,11,GPIO11*%
%TO.N,Net-(U1-GPIO11)*%
X81500000Y-70000000D03*
%TO.P,U1,12,GPIO12*%
%TO.N,unconnected-(U1-GPIO12-Pad12)*%
X81500000Y-67460000D03*
%TO.P,U1,13,GPIO13*%
%TO.N,unconnected-(U1-GPIO13-Pad13)*%
X81500000Y-64920000D03*
%TO.P,U1,G,GND*%
%TO.N,/GND*%
X66260000Y-62380000D03*
%TO.P,U1,RX,RX*%
%TO.N,unconnected-(U1-PadRX)*%
X81500000Y-62380000D03*
%TO.P,U1,TX,TX*%
%TO.N,unconnected-(U1-PadTX)*%
X81500000Y-59630000D03*
%TD*%
D15*
%TO.N,Net-(U1-GPIO11)*%
X67500000Y-51000000D03*
X78500000Y-56500000D03*
D16*
%TO.N,/GND*%
X63000000Y-60000000D03*
X63000000Y-66000000D03*
X63000000Y-75500000D03*
X79000000Y-72500000D03*
X69000000Y-73000000D03*
X73500000Y-76500000D03*
X69500000Y-79500000D03*
X67500000Y-83500000D03*
X64000000Y-86000000D03*
X64000000Y-91500000D03*
X84000000Y-92000000D03*
X89500000Y-89500000D03*
X83000000Y-85500000D03*
X89000000Y-80500000D03*
X84500000Y-76000000D03*
X89500000Y-73500000D03*
X85000000Y-70000000D03*
X90000000Y-66500000D03*
X85000000Y-60500000D03*
X86500000Y-51000000D03*
X89000000Y-53000000D03*
X82500000Y-53000000D03*
X84500000Y-49000000D03*
X87000000Y-45500000D03*
X89500000Y-48500000D03*
X89500000Y-42000000D03*
X89000000Y-31000000D03*
X86500000Y-28500000D03*
X82000000Y-31000000D03*
X79000000Y-28500000D03*
X75000000Y-31000000D03*
X71000000Y-28500000D03*
X67500000Y-31000000D03*
X64000000Y-28500000D03*
%TO.N,Net-(J1-Pin_6)*%
X76500000Y-91000000D03*
X69000000Y-63000000D03*
%TO.N,Net-(J1-Pin_5)*%
X77500000Y-83500000D03*
%TD*%
D17*
%TO.N,Net-(J1-Pin_5)*%
X77500000Y-75500000D02*
X80460000Y-72540000D01*
X80460000Y-72540000D02*
X81500000Y-72540000D01*
X77500000Y-83500000D02*
X77500000Y-75500000D01*
%TO.N,Net-(U1-GPIO11)*%
X78500000Y-56500000D02*
X73000000Y-51000000D01*
X73000000Y-51000000D02*
X67500000Y-51000000D01*
%TO.N,Net-(J1-Pin_6)*%
X69000000Y-68000000D02*
X76500000Y-75500000D01*
X76500000Y-75500000D02*
X76500000Y-91000000D01*
X69000000Y-63000000D02*
X69000000Y-68000000D01*
%TD*%
%TA.AperFunction,Conductor*%
%TO.N,/GND*%
G36*
X92442539Y-26020185D02*
G01*
X92488294Y-26072989D01*
X92499500Y-26124500D01*
X92499500Y-94875500D01*
X92479815Y-94942539D01*
X92427011Y-94988294D01*
X92375500Y-94999500D01*
X61624500Y-94999500D01*
X61557461Y-94979815D01*
X61511706Y-94927011D01*
X61500500Y-94875500D01*
X61500500Y-59839994D01*
X64802020Y-59839994D01*
X64802020Y-59840005D01*
X64821904Y-60079972D01*
X64881017Y-60313405D01*
X64974054Y-60525509D01*
X64977745Y-60533922D01*
X65109449Y-60735510D01*
X65272537Y-60912671D01*
X65340000Y-60965179D01*
X65400750Y-61012463D01*
X65441563Y-61069173D01*
X65445238Y-61138946D01*
X65424746Y-61174851D01*
X65423791Y-61190237D01*
X66023992Y-61790438D01*
X65959215Y-61817271D01*
X65855211Y-61886764D01*
X65766764Y-61975211D01*
X65697271Y-62079215D01*
X65670438Y-62143992D01*
X65070881Y-61544435D01*
X64978185Y-61686317D01*
X64881491Y-61906759D01*
X64822399Y-62140110D01*
X64802522Y-62379994D01*
X64802522Y-62380005D01*
X64822399Y-62619889D01*
X64881491Y-62853240D01*
X64978185Y-63073682D01*
X65070880Y-63215563D01*
X65670438Y-62616006D01*
X65697271Y-62680785D01*
X65766764Y-62784789D01*
X65855211Y-62873236D01*
X65959215Y-62942729D01*
X66023991Y-62969560D01*
X65423790Y-63569761D01*
X65424747Y-63585171D01*
X65441565Y-63608539D01*
X65445239Y-63678312D01*
X65410607Y-63738995D01*
X65400752Y-63747535D01*
X65272539Y-63847327D01*
X65272534Y-63847332D01*
X65109449Y-64024490D01*
X64977743Y-64226081D01*
X64881017Y-64446594D01*
X64821904Y-64680027D01*
X64802020Y-64919994D01*
X64802020Y-64920005D01*
X64821904Y-65159972D01*
X64821904Y-65159975D01*
X64821905Y-65159976D01*
X64881017Y-65393405D01*
X64977745Y-65613922D01*
X65109449Y-65815510D01*
X65272537Y-65992671D01*
X65362608Y-66062776D01*
X65400344Y-66092147D01*
X65441157Y-66148857D01*
X65444831Y-66218630D01*
X65410199Y-66279313D01*
X65400344Y-66287853D01*
X65272539Y-66387327D01*
X65272534Y-66387332D01*
X65109449Y-66564490D01*
X64977743Y-66766081D01*
X64881017Y-66986594D01*
X64821904Y-67220027D01*
X64802020Y-67459994D01*
X64802020Y-67460005D01*
X64821904Y-67699972D01*
X64821904Y-67699975D01*
X64821905Y-67699976D01*
X64881017Y-67933405D01*
X64977745Y-68153922D01*
X65109449Y-68355510D01*
X65272537Y-68532671D01*
X65362608Y-68602776D01*
X65400344Y-68632147D01*
X65441157Y-68688857D01*
X65444831Y-68758630D01*
X65410199Y-68819313D01*
X65400344Y-68827853D01*
X65272539Y-68927327D01*
X65272534Y-68927332D01*
X65109449Y-69104490D01*
X64977743Y-69306081D01*
X64881017Y-69526594D01*
X64821904Y-69760027D01*
X64802020Y-69999994D01*
X64802020Y-70000005D01*
X64821904Y-70239972D01*
X64821904Y-70239975D01*
X64821905Y-70239976D01*
X64881017Y-70473405D01*
X64977745Y-70693922D01*
X65109449Y-70895510D01*
X65272537Y-71072671D01*
X65362608Y-71142776D01*
X65400344Y-71172147D01*
X65441157Y-71228857D01*
X65444831Y-71298630D01*
X65410199Y-71359313D01*
X65400344Y-71367853D01*
X65272539Y-71467327D01*
X65272534Y-71467332D01*
X65109449Y-71644490D01*
X64977743Y-71846081D01*
X64881017Y-72066594D01*
X64821904Y-72300027D01*
X64802020Y-72539994D01*
X64802020Y-72540005D01*
X64821904Y-72779972D01*
X64821904Y-72779975D01*
X64821905Y-72779976D01*
X64881017Y-73013405D01*
X64977745Y-73233922D01*
X65109449Y-73435510D01*
X65272537Y-73612671D01*
X65362608Y-73682776D01*
X65400344Y-73712147D01*
X65441157Y-73768857D01*
X65444831Y-73838630D01*
X65410199Y-73899313D01*
X65400344Y-73907853D01*
X65272539Y-74007327D01*
X65272534Y-74007332D01*
X65109449Y-74184490D01*
X64977743Y-74386081D01*
X64881017Y-74606594D01*
X64821904Y-74840027D01*
X64802020Y-75079994D01*
X64802020Y-75080005D01*
X64821904Y-75319972D01*
X64881017Y-75553405D01*
X64977664Y-75773739D01*
X64977745Y-75773922D01*
X65109449Y-75975510D01*
X65272537Y-76152671D01*
X65362608Y-76222776D01*
X65400344Y-76252147D01*
X65441157Y-76308857D01*
X65444831Y-76378630D01*
X65410199Y-76439313D01*
X65400344Y-76447853D01*
X65272539Y-76547327D01*
X65272534Y-76547332D01*
X65109449Y-76724490D01*
X64977743Y-76926081D01*
X64881017Y-77146594D01*
X64821904Y-77380027D01*
X64802020Y-77619994D01*
X64802020Y-77620005D01*
X64821904Y-77859972D01*
X64821904Y-77859975D01*
X64821905Y-77859976D01*
X64881017Y-78093405D01*
X64977745Y-78313922D01*
X65109449Y-78515510D01*
X65272537Y-78692671D01*
X65362608Y-78762776D01*
X65400344Y-78792147D01*
X65441157Y-78848857D01*
X65444831Y-78918630D01*
X65410199Y-78979313D01*
X65400344Y-78987853D01*
X65272539Y-79087327D01*
X65272534Y-79087332D01*
X65109449Y-79264490D01*
X64977743Y-79466081D01*
X64881017Y-79686594D01*
X64821904Y-79920027D01*
X64802020Y-80159994D01*
X64802020Y-80160005D01*
X64821904Y-80399972D01*
X64821904Y-80399975D01*
X64821905Y-80399976D01*
X64881017Y-80633405D01*
X64977745Y-80853922D01*
X65109449Y-81055510D01*
X65272537Y-81232671D01*
X65462561Y-81380572D01*
X65674336Y-81495179D01*
X65792598Y-81535778D01*
X65902083Y-81573365D01*
X65902085Y-81573365D01*
X65902087Y-81573366D01*
X66139601Y-81613000D01*
X66139602Y-81613000D01*
X66380398Y-81613000D01*
X66380399Y-81613000D01*
X66617913Y-81573366D01*
X66845664Y-81495179D01*
X67057439Y-81380572D01*
X67247463Y-81232671D01*
X67410551Y-81055510D01*
X67542255Y-80853922D01*
X67638983Y-80633405D01*
X67698095Y-80399976D01*
X67717980Y-80160000D01*
X67698095Y-79920024D01*
X67638983Y-79686595D01*
X67542255Y-79466078D01*
X67410551Y-79264490D01*
X67247463Y-79087329D01*
X67119656Y-78987853D01*
X67078843Y-78931143D01*
X67075168Y-78861370D01*
X67109800Y-78800687D01*
X67119656Y-78792147D01*
X67140072Y-78776255D01*
X67247463Y-78692671D01*
X67410551Y-78515510D01*
X67542255Y-78313922D01*
X67638983Y-78093405D01*
X67698095Y-77859976D01*
X67717980Y-77620000D01*
X67698095Y-77380024D01*
X67638983Y-77146595D01*
X67542255Y-76926078D01*
X67410551Y-76724490D01*
X67247463Y-76547329D01*
X67119656Y-76447853D01*
X67078843Y-76391143D01*
X67075168Y-76321370D01*
X67109800Y-76260687D01*
X67119656Y-76252147D01*
X67140072Y-76236255D01*
X67247463Y-76152671D01*
X67410551Y-75975510D01*
X67542255Y-75773922D01*
X67638983Y-75553405D01*
X67698095Y-75319976D01*
X67710935Y-75165024D01*
X67717980Y-75080005D01*
X67717980Y-75079994D01*
X67698095Y-74840027D01*
X67698095Y-74840024D01*
X67638983Y-74606595D01*
X67542255Y-74386078D01*
X67410551Y-74184490D01*
X67247463Y-74007329D01*
X67119656Y-73907853D01*
X67078843Y-73851143D01*
X67075168Y-73781370D01*
X67109800Y-73720687D01*
X67119656Y-73712147D01*
X67140072Y-73696255D01*
X67247463Y-73612671D01*
X67410551Y-73435510D01*
X67542255Y-73233922D01*
X67638983Y-73013405D01*
X67698095Y-72779976D01*
X67717980Y-72540000D01*
X67698095Y-72300024D01*
X67638983Y-72066595D01*
X67542255Y-71846078D01*
X67410551Y-71644490D01*
X67247463Y-71467329D01*
X67119656Y-71367853D01*
X67078843Y-71311143D01*
X67075168Y-71241370D01*
X67109800Y-71180687D01*
X67119656Y-71172147D01*
X67140072Y-71156255D01*
X67247463Y-71072671D01*
X67410551Y-70895510D01*
X67542255Y-70693922D01*
X67638983Y-70473405D01*
X67698095Y-70239976D01*
X67717980Y-70000000D01*
X67698095Y-69760024D01*
X67638983Y-69526595D01*
X67542255Y-69306078D01*
X67410551Y-69104490D01*
X67247463Y-68927329D01*
X67119656Y-68827853D01*
X67078843Y-68771143D01*
X67075168Y-68701370D01*
X67109800Y-68640687D01*
X67119656Y-68632147D01*
X67140072Y-68616255D01*
X67247463Y-68532671D01*
X67410551Y-68355510D01*
X67542255Y-68153922D01*
X67638983Y-67933405D01*
X67698095Y-67699976D01*
X67717980Y-67460000D01*
X67698095Y-67220024D01*
X67638983Y-66986595D01*
X67542255Y-66766078D01*
X67410551Y-66564490D01*
X67247463Y-66387329D01*
X67119656Y-66287853D01*
X67078843Y-66231143D01*
X67075168Y-66161370D01*
X67109800Y-66100687D01*
X67119656Y-66092147D01*
X67140072Y-66076255D01*
X67247463Y-65992671D01*
X67410551Y-65815510D01*
X67542255Y-65613922D01*
X67638983Y-65393405D01*
X67698095Y-65159976D01*
X67717980Y-64920000D01*
X67698095Y-64680024D01*
X67638983Y-64446595D01*
X67542255Y-64226078D01*
X67410551Y-64024490D01*
X67247463Y-63847329D01*
X67119246Y-63747534D01*
X67078433Y-63690824D01*
X67074759Y-63621051D01*
X67095253Y-63585140D01*
X67096208Y-63569760D01*
X66496008Y-62969560D01*
X66560785Y-62942729D01*
X66664789Y-62873236D01*
X66753236Y-62784789D01*
X66822729Y-62680785D01*
X66849560Y-62616007D01*
X67449117Y-63215564D01*
X67541815Y-63073679D01*
X67574135Y-62999996D01*
X68194435Y-62999996D01*
X68194435Y-63000003D01*
X68214630Y-63179249D01*
X68214631Y-63179254D01*
X68274211Y-63349523D01*
X68334515Y-63445496D01*
X68348027Y-63467000D01*
X68370185Y-63502263D01*
X68372445Y-63505097D01*
X68373334Y-63507275D01*
X68373889Y-63508158D01*
X68373734Y-63508255D01*
X68398855Y-63569783D01*
X68399500Y-63582412D01*
X68399500Y-67913330D01*
X68399499Y-67913348D01*
X68399499Y-68079054D01*
X68399498Y-68079054D01*
X68440423Y-68231785D01*
X68469358Y-68281900D01*
X68469359Y-68281904D01*
X68469360Y-68281904D01*
X68519479Y-68368714D01*
X68519481Y-68368717D01*
X68638349Y-68487585D01*
X68638355Y-68487590D01*
X75863181Y-75712416D01*
X75896666Y-75773739D01*
X75899500Y-75800097D01*
X75899500Y-90417587D01*
X75879815Y-90484626D01*
X75872450Y-90494896D01*
X75870186Y-90497734D01*
X75774211Y-90650476D01*
X75714631Y-90820745D01*
X75714630Y-90820750D01*
X75694435Y-90999996D01*
X75694435Y-91000003D01*
X75714630Y-91179249D01*
X75714631Y-91179254D01*
X75774211Y-91349523D01*
X75870184Y-91502262D01*
X75997738Y-91629816D01*
X76150478Y-91725789D01*
X76320745Y-91785368D01*
X76320750Y-91785369D01*
X76499996Y-91805565D01*
X76500000Y-91805565D01*
X76500004Y-91805565D01*
X76679249Y-91785369D01*
X76679252Y-91785368D01*
X76679255Y-91785368D01*
X76849522Y-91725789D01*
X77002262Y-91629816D01*
X77129816Y-91502262D01*
X77225789Y-91349522D01*
X77285368Y-91179255D01*
X77305565Y-91000000D01*
X77285368Y-90820745D01*
X77225789Y-90650478D01*
X77129816Y-90497738D01*
X77129814Y-90497736D01*
X77129813Y-90497734D01*
X77127550Y-90494896D01*
X77126659Y-90492715D01*
X77126111Y-90491842D01*
X77126264Y-90491745D01*
X77101144Y-90430209D01*
X77100500Y-90417587D01*
X77100500Y-84383062D01*
X77120185Y-84316023D01*
X77172989Y-84270268D01*
X77242147Y-84260324D01*
X77265448Y-84266018D01*
X77320745Y-84285368D01*
X77320748Y-84285368D01*
X77320750Y-84285369D01*
X77499996Y-84305565D01*
X77500000Y-84305565D01*
X77500004Y-84305565D01*
X77679249Y-84285369D01*
X77679252Y-84285368D01*
X77679255Y-84285368D01*
X77849522Y-84225789D01*
X78002262Y-84129816D01*
X78129816Y-84002262D01*
X78225789Y-83849522D01*
X78285368Y-83679255D01*
X78305565Y-83500000D01*
X78285368Y-83320745D01*
X78225789Y-83150478D01*
X78129816Y-82997738D01*
X78129814Y-82997736D01*
X78129813Y-82997734D01*
X78127550Y-82994896D01*
X78126659Y-82992715D01*
X78126111Y-82991842D01*
X78126264Y-82991745D01*
X78101144Y-82930209D01*
X78100500Y-82917587D01*
X78100500Y-75800096D01*
X78120185Y-75733057D01*
X78136814Y-75712420D01*
X80288876Y-73560357D01*
X80350197Y-73526874D01*
X80419889Y-73531858D01*
X80467784Y-73564057D01*
X80512527Y-73612661D01*
X80512532Y-73612665D01*
X80512537Y-73612671D01*
X80602608Y-73682776D01*
X80640344Y-73712147D01*
X80681157Y-73768857D01*
X80684831Y-73838630D01*
X80650199Y-73899313D01*
X80640344Y-73907853D01*
X80512539Y-74007327D01*
X80512534Y-74007332D01*
X80349449Y-74184490D01*
X80217743Y-74386081D01*
X80121017Y-74606594D01*
X80061904Y-74840027D01*
X80042020Y-75079994D01*
X80042020Y-75080005D01*
X80061904Y-75319972D01*
X80121017Y-75553405D01*
X80217664Y-75773739D01*
X80217745Y-75773922D01*
X80349449Y-75975510D01*
X80512537Y-76152671D01*
X80602608Y-76222776D01*
X80640344Y-76252147D01*
X80681157Y-76308857D01*
X80684831Y-76378630D01*
X80650199Y-76439313D01*
X80640344Y-76447853D01*
X80512539Y-76547327D01*
X80512534Y-76547332D01*
X80349449Y-76724490D01*
X80217743Y-76926081D01*
X80121017Y-77146594D01*
X80061904Y-77380027D01*
X80042020Y-77619994D01*
X80042020Y-77620005D01*
X80061904Y-77859972D01*
X80061904Y-77859975D01*
X80061905Y-77859976D01*
X80121017Y-78093405D01*
X80217745Y-78313922D01*
X80349449Y-78515510D01*
X80512537Y-78692671D01*
X80602608Y-78762776D01*
X80640344Y-78792147D01*
X80681157Y-78848857D01*
X80684831Y-78918630D01*
X80650199Y-78979313D01*
X80640344Y-78987853D01*
X80512539Y-79087327D01*
X80512534Y-79087332D01*
X80349449Y-79264490D01*
X80217743Y-79466081D01*
X80121017Y-79686594D01*
X80061904Y-79920027D01*
X80042020Y-80159994D01*
X80042020Y-80160005D01*
X80061904Y-80399972D01*
X80061904Y-80399975D01*
X80061905Y-80399976D01*
X80121017Y-80633405D01*
X80217745Y-80853922D01*
X80349449Y-81055510D01*
X80512537Y-81232671D01*
X80702561Y-81380572D01*
X80914336Y-81495179D01*
X81032598Y-81535778D01*
X81142083Y-81573365D01*
X81142085Y-81573365D01*
X81142087Y-81573366D01*
X81379601Y-81613000D01*
X81379602Y-81613000D01*
X81620398Y-81613000D01*
X81620399Y-81613000D01*
X81857913Y-81573366D01*
X82085664Y-81495179D01*
X82297439Y-81380572D01*
X82487463Y-81232671D01*
X82650551Y-81055510D01*
X82782255Y-80853922D01*
X82878983Y-80633405D01*
X82938095Y-80399976D01*
X82957980Y-80160000D01*
X82938095Y-79920024D01*
X82878983Y-79686595D01*
X82782255Y-79466078D01*
X82650551Y-79264490D01*
X82487463Y-79087329D01*
X82359656Y-78987853D01*
X82318843Y-78931143D01*
X82315168Y-78861370D01*
X82349800Y-78800687D01*
X82359656Y-78792147D01*
X82380072Y-78776255D01*
X82487463Y-78692671D01*
X82650551Y-78515510D01*
X82782255Y-78313922D01*
X82878983Y-78093405D01*
X82938095Y-77859976D01*
X82957980Y-77620000D01*
X82938095Y-77380024D01*
X82878983Y-77146595D01*
X82782255Y-76926078D01*
X82650551Y-76724490D01*
X82487463Y-76547329D01*
X82359656Y-76447853D01*
X82318843Y-76391143D01*
X82315168Y-76321370D01*
X82349800Y-76260687D01*
X82359656Y-76252147D01*
X82380072Y-76236255D01*
X82487463Y-76152671D01*
X82650551Y-75975510D01*
X82782255Y-75773922D01*
X82878983Y-75553405D01*
X82938095Y-75319976D01*
X82950935Y-75165024D01*
X82957980Y-75080005D01*
X82957980Y-75079994D01*
X82938095Y-74840027D01*
X82938095Y-74840024D01*
X82878983Y-74606595D01*
X82782255Y-74386078D01*
X82650551Y-74184490D01*
X82487463Y-74007329D01*
X82359656Y-73907853D01*
X82318843Y-73851143D01*
X82315168Y-73781370D01*
X82349800Y-73720687D01*
X82359656Y-73712147D01*
X82380072Y-73696255D01*
X82487463Y-73612671D01*
X82650551Y-73435510D01*
X82782255Y-73233922D01*
X82878983Y-73013405D01*
X82938095Y-72779976D01*
X82957980Y-72540000D01*
X82938095Y-72300024D01*
X82878983Y-72066595D01*
X82782255Y-71846078D01*
X82650551Y-71644490D01*
X82487463Y-71467329D01*
X82359656Y-71367853D01*
X82318843Y-71311143D01*
X82315168Y-71241370D01*
X82349800Y-71180687D01*
X82359656Y-71172147D01*
X82380072Y-71156255D01*
X82487463Y-71072671D01*
X82650551Y-70895510D01*
X82782255Y-70693922D01*
X82878983Y-70473405D01*
X82938095Y-70239976D01*
X82957980Y-70000000D01*
X82938095Y-69760024D01*
X82878983Y-69526595D01*
X82782255Y-69306078D01*
X82650551Y-69104490D01*
X82487463Y-68927329D01*
X82359656Y-68827853D01*
X82318843Y-68771143D01*
X82315168Y-68701370D01*
X82349800Y-68640687D01*
X82359656Y-68632147D01*
X82380072Y-68616255D01*
X82487463Y-68532671D01*
X82650551Y-68355510D01*
X82782255Y-68153922D01*
X82878983Y-67933405D01*
X82938095Y-67699976D01*
X82957980Y-67460000D01*
X82938095Y-67220024D01*
X82878983Y-66986595D01*
X82782255Y-66766078D01*
X82650551Y-66564490D01*
X82487463Y-66387329D01*
X82359656Y-66287853D01*
X82318843Y-66231143D01*
X82315168Y-66161370D01*
X82349800Y-66100687D01*
X82359656Y-66092147D01*
X82380072Y-66076255D01*
X82487463Y-65992671D01*
X82650551Y-65815510D01*
X82782255Y-65613922D01*
X82878983Y-65393405D01*
X82938095Y-65159976D01*
X82957980Y-64920000D01*
X82938095Y-64680024D01*
X82878983Y-64446595D01*
X82782255Y-64226078D01*
X82650551Y-64024490D01*
X82487463Y-63847329D01*
X82359656Y-63747853D01*
X82318843Y-63691143D01*
X82315168Y-63621370D01*
X82349800Y-63560687D01*
X82359656Y-63552147D01*
X82416048Y-63508255D01*
X82487463Y-63452671D01*
X82650551Y-63275510D01*
X82782255Y-63073922D01*
X82878983Y-62853405D01*
X82938095Y-62619976D01*
X82957980Y-62380000D01*
X82938095Y-62140024D01*
X82878983Y-61906595D01*
X82782255Y-61686078D01*
X82650551Y-61484490D01*
X82487463Y-61307329D01*
X82317219Y-61174823D01*
X82297441Y-61159429D01*
X82297436Y-61159426D01*
X82213597Y-61114055D01*
X82164006Y-61064836D01*
X82148898Y-60996619D01*
X82173068Y-60931063D01*
X82213597Y-60895945D01*
X82297439Y-60850572D01*
X82487463Y-60702671D01*
X82650551Y-60525510D01*
X82782255Y-60323922D01*
X82878983Y-60103405D01*
X82938095Y-59869976D01*
X82957980Y-59630000D01*
X82955496Y-59600027D01*
X82938095Y-59390027D01*
X82938095Y-59390024D01*
X82878983Y-59156595D01*
X82782255Y-58936078D01*
X82650551Y-58734490D01*
X82487463Y-58557329D01*
X82353358Y-58452951D01*
X82297441Y-58409429D01*
X82085665Y-58294821D01*
X82085656Y-58294818D01*
X81857916Y-58216634D01*
X81679777Y-58186908D01*
X81620399Y-58177000D01*
X81379601Y-58177000D01*
X81332098Y-58184926D01*
X81142083Y-58216634D01*
X80914343Y-58294818D01*
X80914334Y-58294821D01*
X80702558Y-58409429D01*
X80568456Y-58513805D01*
X80512537Y-58557329D01*
X80512534Y-58557331D01*
X80512534Y-58557332D01*
X80349449Y-58734490D01*
X80217743Y-58936081D01*
X80121017Y-59156594D01*
X80061904Y-59390027D01*
X80042020Y-59629994D01*
X80042020Y-59630005D01*
X80061904Y-59869972D01*
X80061904Y-59869975D01*
X80061905Y-59869976D01*
X80121017Y-60103405D01*
X80217745Y-60323922D01*
X80349449Y-60525510D01*
X80512537Y-60702671D01*
X80702561Y-60850572D01*
X80786403Y-60895945D01*
X80835993Y-60945165D01*
X80851101Y-61013382D01*
X80826930Y-61078937D01*
X80786403Y-61114055D01*
X80702558Y-61159429D01*
X80581869Y-61253366D01*
X80512537Y-61307329D01*
X80512534Y-61307331D01*
X80512534Y-61307332D01*
X80349449Y-61484490D01*
X80217743Y-61686081D01*
X80121017Y-61906594D01*
X80061904Y-62140027D01*
X80042020Y-62379994D01*
X80042020Y-62380005D01*
X80061904Y-62619972D01*
X80121017Y-62853405D01*
X80217639Y-63073682D01*
X80217745Y-63073922D01*
X80349449Y-63275510D01*
X80512537Y-63452671D01*
X80576252Y-63502262D01*
X80640344Y-63552147D01*
X80681157Y-63608857D01*
X80684831Y-63678630D01*
X80650199Y-63739313D01*
X80640344Y-63747853D01*
X80512539Y-63847327D01*
X80512534Y-63847332D01*
X80349449Y-64024490D01*
X80217743Y-64226081D01*
X80121017Y-64446594D01*
X80061904Y-64680027D01*
X80042020Y-64919994D01*
X80042020Y-64920005D01*
X80061904Y-65159972D01*
X80061904Y-65159975D01*
X80061905Y-65159976D01*
X80121017Y-65393405D01*
X80217745Y-65613922D01*
X80349449Y-65815510D01*
X80512537Y-65992671D01*
X80602608Y-66062776D01*
X80640344Y-66092147D01*
X80681157Y-66148857D01*
X80684831Y-66218630D01*
X80650199Y-66279313D01*
X80640344Y-66287853D01*
X80512539Y-66387327D01*
X80512534Y-66387332D01*
X80349449Y-66564490D01*
X80217743Y-66766081D01*
X80121017Y-66986594D01*
X80061904Y-67220027D01*
X80042020Y-67459994D01*
X80042020Y-67460005D01*
X80061904Y-67699972D01*
X80061904Y-67699975D01*
X80061905Y-67699976D01*
X80121017Y-67933405D01*
X80217745Y-68153922D01*
X80349449Y-68355510D01*
X80512537Y-68532671D01*
X80602608Y-68602776D01*
X80640344Y-68632147D01*
X80681157Y-68688857D01*
X80684831Y-68758630D01*
X80650199Y-68819313D01*
X80640344Y-68827853D01*
X80512539Y-68927327D01*
X80512534Y-68927332D01*
X80349449Y-69104490D01*
X80217743Y-69306081D01*
X80121017Y-69526594D01*
X80061904Y-69760027D01*
X80042020Y-69999994D01*
X80042020Y-70000005D01*
X80061904Y-70239972D01*
X80061904Y-70239975D01*
X80061905Y-70239976D01*
X80121017Y-70473405D01*
X80217745Y-70693922D01*
X80349449Y-70895510D01*
X80512537Y-71072671D01*
X80602608Y-71142776D01*
X80640344Y-71172147D01*
X80681157Y-71228857D01*
X80684831Y-71298630D01*
X80650199Y-71359313D01*
X80640344Y-71367853D01*
X80512539Y-71467327D01*
X80512534Y-71467332D01*
X80349449Y-71644490D01*
X80217742Y-71846082D01*
X80151613Y-71996838D01*
X80106657Y-72050323D01*
X80100065Y-72054409D01*
X80091290Y-72059475D01*
X80091281Y-72059482D01*
X77087681Y-75063083D01*
X77026358Y-75096568D01*
X76956666Y-75091584D01*
X76912319Y-75063083D01*
X69636819Y-67787583D01*
X69603334Y-67726260D01*
X69600500Y-67699902D01*
X69600500Y-63582412D01*
X69620185Y-63515373D01*
X69627555Y-63505097D01*
X69629810Y-63502267D01*
X69629816Y-63502262D01*
X69725789Y-63349522D01*
X69785368Y-63179255D01*
X69797263Y-63073682D01*
X69805565Y-63000003D01*
X69805565Y-62999996D01*
X69785369Y-62820750D01*
X69785368Y-62820745D01*
X69725788Y-62650476D01*
X69629815Y-62497737D01*
X69502262Y-62370184D01*
X69349523Y-62274211D01*
X69179254Y-62214631D01*
X69179249Y-62214630D01*
X69000004Y-62194435D01*
X68999996Y-62194435D01*
X68820750Y-62214630D01*
X68820745Y-62214631D01*
X68650476Y-62274211D01*
X68497737Y-62370184D01*
X68370184Y-62497737D01*
X68274211Y-62650476D01*
X68214631Y-62820745D01*
X68214630Y-62820750D01*
X68194435Y-62999996D01*
X67574135Y-62999996D01*
X67638508Y-62853240D01*
X67697600Y-62619889D01*
X67717478Y-62380005D01*
X67717478Y-62379994D01*
X67697600Y-62140110D01*
X67638508Y-61906759D01*
X67541815Y-61686320D01*
X67449117Y-61544434D01*
X66849560Y-62143991D01*
X66822729Y-62079215D01*
X66753236Y-61975211D01*
X66664789Y-61886764D01*
X66560785Y-61817271D01*
X66496007Y-61790438D01*
X67096208Y-61190237D01*
X67095251Y-61174823D01*
X67078435Y-61151456D01*
X67074762Y-61081683D01*
X67109395Y-61021001D01*
X67119231Y-61012477D01*
X67247463Y-60912671D01*
X67410551Y-60735510D01*
X67542255Y-60533922D01*
X67638983Y-60313405D01*
X67698095Y-60079976D01*
X67715496Y-59869976D01*
X67717980Y-59840005D01*
X67717980Y-59839994D01*
X67698095Y-59600027D01*
X67698095Y-59600024D01*
X67638983Y-59366595D01*
X67542255Y-59146078D01*
X67410551Y-58944490D01*
X67247463Y-58767329D01*
X67113358Y-58662951D01*
X67057441Y-58619429D01*
X66845665Y-58504821D01*
X66845656Y-58504818D01*
X66617916Y-58426634D01*
X66439777Y-58396908D01*
X66380399Y-58387000D01*
X66139601Y-58387000D01*
X66092098Y-58394926D01*
X65902083Y-58426634D01*
X65674343Y-58504818D01*
X65674334Y-58504821D01*
X65462558Y-58619429D01*
X65328456Y-58723805D01*
X65272537Y-58767329D01*
X65272534Y-58767331D01*
X65272534Y-58767332D01*
X65109449Y-58944490D01*
X64977743Y-59146081D01*
X64881017Y-59366594D01*
X64821904Y-59600027D01*
X64802020Y-59839994D01*
X61500500Y-59839994D01*
X61500500Y-50999999D01*
X66844722Y-50999999D01*
X66844722Y-51000000D01*
X66863762Y-51156818D01*
X66919780Y-51304523D01*
X67009517Y-51434530D01*
X67127760Y-51539283D01*
X67127762Y-51539284D01*
X67267634Y-51612696D01*
X67421014Y-51650500D01*
X67421015Y-51650500D01*
X67578985Y-51650500D01*
X67732365Y-51612696D01*
X67739377Y-51610037D01*
X67740069Y-51611862D01*
X67786166Y-51600500D01*
X72699903Y-51600500D01*
X72766942Y-51620185D01*
X72787584Y-51636819D01*
X77879263Y-56728499D01*
X77907523Y-56772207D01*
X77919779Y-56804521D01*
X77919780Y-56804523D01*
X78009517Y-56934530D01*
X78127760Y-57039283D01*
X78127762Y-57039284D01*
X78267634Y-57112696D01*
X78421014Y-57150500D01*
X78421015Y-57150500D01*
X78578985Y-57150500D01*
X78732365Y-57112696D01*
X78872240Y-57039283D01*
X78990483Y-56934530D01*
X79080220Y-56804523D01*
X79136237Y-56656818D01*
X79155278Y-56500000D01*
X79136237Y-56343182D01*
X79080220Y-56195477D01*
X78990483Y-56065470D01*
X78872240Y-55960717D01*
X78872238Y-55960716D01*
X78872237Y-55960715D01*
X78872233Y-55960712D01*
X78757861Y-55900685D01*
X78727806Y-55878570D01*
X73487590Y-50638355D01*
X73487588Y-50638352D01*
X73368717Y-50519481D01*
X73368716Y-50519480D01*
X73281904Y-50469360D01*
X73281904Y-50469359D01*
X73281900Y-50469358D01*
X73231785Y-50440423D01*
X73079057Y-50399499D01*
X72920943Y-50399499D01*
X72913347Y-50399499D01*
X72913331Y-50399500D01*
X67786166Y-50399500D01*
X67740069Y-50388137D01*
X67739377Y-50389963D01*
X67732365Y-50387303D01*
X67578986Y-50349500D01*
X67578985Y-50349500D01*
X67421015Y-50349500D01*
X67421014Y-50349500D01*
X67267634Y-50387303D01*
X67127762Y-50460715D01*
X67009516Y-50565471D01*
X66919781Y-50695475D01*
X66919780Y-50695476D01*
X66863762Y-50843181D01*
X66844722Y-50999999D01*
X61500500Y-50999999D01*
X61500500Y-42152135D01*
X64099500Y-42152135D01*
X64099500Y-45247870D01*
X64099501Y-45247876D01*
X64105908Y-45307483D01*
X64156202Y-45442328D01*
X64156206Y-45442335D01*
X64242452Y-45557544D01*
X64242455Y-45557547D01*
X64357664Y-45643793D01*
X64357671Y-45643797D01*
X64492517Y-45694091D01*
X64492516Y-45694091D01*
X64499444Y-45694835D01*
X64552127Y-45700500D01*
X66447872Y-45700499D01*
X66507483Y-45694091D01*
X66642331Y-45643796D01*
X66757546Y-45557546D01*
X66843796Y-45442331D01*
X66862927Y-45391037D01*
X66904797Y-45335104D01*
X66970261Y-45310686D01*
X67038534Y-45325537D01*
X67066790Y-45346689D01*
X67087958Y-45367857D01*
X67266239Y-45497386D01*
X67462589Y-45597432D01*
X67672163Y-45665526D01*
X67749999Y-45677854D01*
X67750000Y-45677854D01*
X67750000Y-44248482D01*
X67768409Y-44259111D01*
X67921009Y-44300000D01*
X68078991Y-44300000D01*
X68231591Y-44259111D01*
X68250000Y-44248482D01*
X68250000Y-45677854D01*
X68327834Y-45665526D01*
X68327837Y-45665526D01*
X68537410Y-45597432D01*
X68733760Y-45497386D01*
X68912041Y-45367857D01*
X69067857Y-45212041D01*
X69197386Y-45033760D01*
X69297432Y-44837410D01*
X69365526Y-44627835D01*
X69400000Y-44410181D01*
X69400000Y-43950000D01*
X68548482Y-43950000D01*
X68559111Y-43931591D01*
X68600000Y-43778991D01*
X68600000Y-43621009D01*
X68559111Y-43468409D01*
X68548482Y-43450000D01*
X69400000Y-43450000D01*
X69400000Y-42989818D01*
X69365526Y-42772164D01*
X69297432Y-42562589D01*
X69197386Y-42366239D01*
X69067857Y-42187958D01*
X69032034Y-42152135D01*
X73349500Y-42152135D01*
X73349500Y-45247870D01*
X73349501Y-45247876D01*
X73355908Y-45307483D01*
X73406202Y-45442328D01*
X73406206Y-45442335D01*
X73492452Y-45557544D01*
X73492455Y-45557547D01*
X73607664Y-45643793D01*
X73607671Y-45643797D01*
X73742517Y-45694091D01*
X73742516Y-45694091D01*
X73749444Y-45694835D01*
X73802127Y-45700500D01*
X75697872Y-45700499D01*
X75757483Y-45694091D01*
X75892331Y-45643796D01*
X76007546Y-45557546D01*
X76093796Y-45442331D01*
X76112735Y-45391554D01*
X76154606Y-45335620D01*
X76220070Y-45311202D01*
X76288343Y-45326053D01*
X76316598Y-45347205D01*
X76337636Y-45368243D01*
X76337641Y-45368247D01*
X76369721Y-45391554D01*
X76515978Y-45497815D01*
X76644375Y-45563237D01*
X76712393Y-45597895D01*
X76712396Y-45597896D01*
X76817221Y-45631955D01*
X76922049Y-45666015D01*
X77139778Y-45700500D01*
X77139779Y-45700500D01*
X77360221Y-45700500D01*
X77360222Y-45700500D01*
X77577951Y-45666015D01*
X77787606Y-45597895D01*
X77984022Y-45497815D01*
X78162365Y-45368242D01*
X78318242Y-45212365D01*
X78447815Y-45034022D01*
X78547895Y-44837606D01*
X78616015Y-44627951D01*
X78650500Y-44410222D01*
X78650500Y-42989778D01*
X78616015Y-42772049D01*
X78581955Y-42667221D01*
X78547896Y-42562396D01*
X78547895Y-42562393D01*
X78513237Y-42494375D01*
X78447815Y-42365978D01*
X78318477Y-42187958D01*
X78318247Y-42187641D01*
X78318243Y-42187636D01*
X78162363Y-42031756D01*
X78162358Y-42031752D01*
X77984025Y-41902187D01*
X77984024Y-41902186D01*
X77984022Y-41902185D01*
X77866791Y-41842452D01*
X77787606Y-41802104D01*
X77787603Y-41802103D01*
X77577952Y-41733985D01*
X77469086Y-41716742D01*
X77360222Y-41699500D01*
X77139778Y-41699500D01*
X77067201Y-41710995D01*
X76922047Y-41733985D01*
X76712396Y-41802103D01*
X76712393Y-41802104D01*
X76515974Y-41902187D01*
X76337641Y-42031752D01*
X76337635Y-42031757D01*
X76316596Y-42052796D01*
X76255273Y-42086280D01*
X76185581Y-42081294D01*
X76129648Y-42039421D01*
X76112735Y-42008446D01*
X76093797Y-41957671D01*
X76093793Y-41957664D01*
X76007547Y-41842455D01*
X76007544Y-41842452D01*
X75892335Y-41756206D01*
X75892328Y-41756202D01*
X75757482Y-41705908D01*
X75757483Y-41705908D01*
X75697883Y-41699501D01*
X75697881Y-41699500D01*
X75697873Y-41699500D01*
X75697864Y-41699500D01*
X73802129Y-41699500D01*
X73802123Y-41699501D01*
X73742516Y-41705908D01*
X73607671Y-41756202D01*
X73607664Y-41756206D01*
X73492455Y-41842452D01*
X73492452Y-41842455D01*
X73406206Y-41957664D01*
X73406202Y-41957671D01*
X73355908Y-42092517D01*
X73349501Y-42152116D01*
X73349500Y-42152135D01*
X69032034Y-42152135D01*
X68912041Y-42032142D01*
X68733760Y-41902613D01*
X68537410Y-41802567D01*
X68327836Y-41734473D01*
X68250000Y-41722144D01*
X68250000Y-43151517D01*
X68231591Y-43140889D01*
X68078991Y-43100000D01*
X67921009Y-43100000D01*
X67768409Y-43140889D01*
X67750000Y-43151517D01*
X67750000Y-41722144D01*
X67672164Y-41734473D01*
X67672161Y-41734473D01*
X67462589Y-41802567D01*
X67266239Y-41902613D01*
X67087958Y-42032142D01*
X67066788Y-42053312D01*
X67005465Y-42086796D01*
X66935773Y-42081810D01*
X66879840Y-42039937D01*
X66862927Y-42008961D01*
X66843798Y-41957673D01*
X66843793Y-41957664D01*
X66757547Y-41842455D01*
X66757544Y-41842452D01*
X66642335Y-41756206D01*
X66642328Y-41756202D01*
X66507482Y-41705908D01*
X66507483Y-41705908D01*
X66447883Y-41699501D01*
X66447881Y-41699500D01*
X66447873Y-41699500D01*
X66447864Y-41699500D01*
X64552129Y-41699500D01*
X64552123Y-41699501D01*
X64492516Y-41705908D01*
X64357671Y-41756202D01*
X64357664Y-41756206D01*
X64242455Y-41842452D01*
X64242452Y-41842455D01*
X64156206Y-41957664D01*
X64156202Y-41957671D01*
X64105908Y-42092517D01*
X64099501Y-42152116D01*
X64099500Y-42152135D01*
X61500500Y-42152135D01*
X61500500Y-37152135D01*
X64099500Y-37152135D01*
X64099500Y-40247870D01*
X64099501Y-40247876D01*
X64105908Y-40307483D01*
X64156202Y-40442328D01*
X64156206Y-40442335D01*
X64242452Y-40557544D01*
X64242455Y-40557547D01*
X64357664Y-40643793D01*
X64357671Y-40643797D01*
X64492517Y-40694091D01*
X64492516Y-40694091D01*
X64499444Y-40694835D01*
X64552127Y-40700500D01*
X66447872Y-40700499D01*
X66507483Y-40694091D01*
X66642331Y-40643796D01*
X66757546Y-40557546D01*
X66843796Y-40442331D01*
X66862927Y-40391037D01*
X66904797Y-40335104D01*
X66970261Y-40310686D01*
X67038534Y-40325537D01*
X67066790Y-40346689D01*
X67087958Y-40367857D01*
X67266239Y-40497386D01*
X67462589Y-40597432D01*
X67672163Y-40665526D01*
X67749999Y-40677854D01*
X67750000Y-40677854D01*
X67750000Y-39248482D01*
X67768409Y-39259111D01*
X67921009Y-39300000D01*
X68078991Y-39300000D01*
X68231591Y-39259111D01*
X68250000Y-39248482D01*
X68250000Y-40677854D01*
X68327834Y-40665526D01*
X68327837Y-40665526D01*
X68537410Y-40597432D01*
X68733760Y-40497386D01*
X68912041Y-40367857D01*
X69067857Y-40212041D01*
X69197386Y-40033760D01*
X69297432Y-39837410D01*
X69365526Y-39627835D01*
X69400000Y-39410181D01*
X69400000Y-38950000D01*
X68548482Y-38950000D01*
X68559111Y-38931591D01*
X68600000Y-38778991D01*
X68600000Y-38621009D01*
X68559111Y-38468409D01*
X68548482Y-38450000D01*
X69400000Y-38450000D01*
X69400000Y-37989818D01*
X69365526Y-37772164D01*
X69297432Y-37562589D01*
X69197386Y-37366239D01*
X69067857Y-37187958D01*
X69032034Y-37152135D01*
X73349500Y-37152135D01*
X73349500Y-40247870D01*
X73349501Y-40247876D01*
X73355908Y-40307483D01*
X73406202Y-40442328D01*
X73406206Y-40442335D01*
X73492452Y-40557544D01*
X73492455Y-40557547D01*
X73607664Y-40643793D01*
X73607671Y-40643797D01*
X73742517Y-40694091D01*
X73742516Y-40694091D01*
X73749444Y-40694835D01*
X73802127Y-40700500D01*
X75697872Y-40700499D01*
X75757483Y-40694091D01*
X75892331Y-40643796D01*
X76007546Y-40557546D01*
X76093796Y-40442331D01*
X76112735Y-40391554D01*
X76154606Y-40335620D01*
X76220070Y-40311202D01*
X76288343Y-40326053D01*
X76316598Y-40347205D01*
X76337636Y-40368243D01*
X76337641Y-40368247D01*
X76369721Y-40391554D01*
X76515978Y-40497815D01*
X76644375Y-40563237D01*
X76712393Y-40597895D01*
X76712396Y-40597896D01*
X76817221Y-40631955D01*
X76922049Y-40666015D01*
X77139778Y-40700500D01*
X77139779Y-40700500D01*
X77360221Y-40700500D01*
X77360222Y-40700500D01*
X77577951Y-40666015D01*
X77787606Y-40597895D01*
X77984022Y-40497815D01*
X78162365Y-40368242D01*
X78318242Y-40212365D01*
X78447815Y-40034022D01*
X78547895Y-39837606D01*
X78616015Y-39627951D01*
X78650500Y-39410222D01*
X78650500Y-37989778D01*
X78616015Y-37772049D01*
X78549010Y-37565826D01*
X78547896Y-37562396D01*
X78547895Y-37562393D01*
X78516103Y-37499999D01*
X83104341Y-37499999D01*
X83104341Y-37500000D01*
X83124936Y-37735403D01*
X83124938Y-37735413D01*
X83186094Y-37963655D01*
X83186096Y-37963659D01*
X83186097Y-37963663D01*
X83268739Y-38140889D01*
X83285965Y-38177830D01*
X83285967Y-38177834D01*
X83315409Y-38219881D01*
X83421505Y-38371401D01*
X83588599Y-38538495D01*
X83685384Y-38606265D01*
X83782165Y-38674032D01*
X83782167Y-38674033D01*
X83782170Y-38674035D01*
X83996337Y-38773903D01*
X84224592Y-38835063D01*
X84401034Y-38850500D01*
X84459999Y-38855659D01*
X84460000Y-38855659D01*
X84460001Y-38855659D01*
X84518966Y-38850500D01*
X84695408Y-38835063D01*
X84923663Y-38773903D01*
X85137830Y-38674035D01*
X85331401Y-38538495D01*
X85498495Y-38371401D01*
X85628730Y-38185405D01*
X85683307Y-38141781D01*
X85752805Y-38134587D01*
X85815160Y-38166110D01*
X85831879Y-38185405D01*
X85961890Y-38371078D01*
X86128917Y-38538105D01*
X86322421Y-38673600D01*
X86536507Y-38773429D01*
X86536516Y-38773433D01*
X86750000Y-38830634D01*
X86750000Y-37933012D01*
X86807007Y-37965925D01*
X86934174Y-38000000D01*
X87065826Y-38000000D01*
X87192993Y-37965925D01*
X87250000Y-37933012D01*
X87250000Y-38830633D01*
X87463483Y-38773433D01*
X87463492Y-38773429D01*
X87677578Y-38673600D01*
X87871078Y-38538108D01*
X87993133Y-38416053D01*
X88054456Y-38382568D01*
X88124148Y-38387552D01*
X88180082Y-38429423D01*
X88196997Y-38460401D01*
X88246202Y-38592328D01*
X88246206Y-38592335D01*
X88332452Y-38707544D01*
X88332455Y-38707547D01*
X88447664Y-38793793D01*
X88447671Y-38793797D01*
X88582517Y-38844091D01*
X88582516Y-38844091D01*
X88589444Y-38844835D01*
X88642127Y-38850500D01*
X90437872Y-38850499D01*
X90497483Y-38844091D01*
X90632331Y-38793796D01*
X90747546Y-38707546D01*
X90833796Y-38592331D01*
X90884091Y-38457483D01*
X90890500Y-38397873D01*
X90890499Y-36602128D01*
X90884091Y-36542517D01*
X90883002Y-36539598D01*
X90833797Y-36407671D01*
X90833793Y-36407664D01*
X90747547Y-36292455D01*
X90747544Y-36292452D01*
X90632335Y-36206206D01*
X90632328Y-36206202D01*
X90497482Y-36155908D01*
X90497483Y-36155908D01*
X90437883Y-36149501D01*
X90437881Y-36149500D01*
X90437873Y-36149500D01*
X90437864Y-36149500D01*
X88642129Y-36149500D01*
X88642123Y-36149501D01*
X88582516Y-36155908D01*
X88447671Y-36206202D01*
X88447664Y-36206206D01*
X88332455Y-36292452D01*
X88332452Y-36292455D01*
X88246206Y-36407664D01*
X88246202Y-36407671D01*
X88196997Y-36539598D01*
X88155126Y-36595532D01*
X88089661Y-36619949D01*
X88021388Y-36605097D01*
X87993134Y-36583946D01*
X87871082Y-36461894D01*
X87677578Y-36326399D01*
X87463492Y-36226570D01*
X87463486Y-36226567D01*
X87250000Y-36169364D01*
X87250000Y-37066988D01*
X87192993Y-37034075D01*
X87065826Y-37000000D01*
X86934174Y-37000000D01*
X86807007Y-37034075D01*
X86750000Y-37066988D01*
X86750000Y-36169364D01*
X86749999Y-36169364D01*
X86536513Y-36226567D01*
X86536507Y-36226570D01*
X86322422Y-36326399D01*
X86322420Y-36326400D01*
X86128926Y-36461886D01*
X86128920Y-36461891D01*
X85961891Y-36628920D01*
X85961890Y-36628922D01*
X85831880Y-36814595D01*
X85777303Y-36858219D01*
X85707804Y-36865412D01*
X85645450Y-36833890D01*
X85628730Y-36814594D01*
X85498494Y-36628597D01*
X85331402Y-36461506D01*
X85331395Y-36461501D01*
X85137834Y-36325967D01*
X85137830Y-36325965D01*
X85137828Y-36325964D01*
X84923663Y-36226097D01*
X84923659Y-36226096D01*
X84923655Y-36226094D01*
X84695413Y-36164938D01*
X84695403Y-36164936D01*
X84460001Y-36144341D01*
X84459999Y-36144341D01*
X84224596Y-36164936D01*
X84224586Y-36164938D01*
X83996344Y-36226094D01*
X83996335Y-36226098D01*
X83782171Y-36325964D01*
X83782169Y-36325965D01*
X83588597Y-36461505D01*
X83421505Y-36628597D01*
X83285965Y-36822169D01*
X83285964Y-36822171D01*
X83186098Y-37036335D01*
X83186094Y-37036344D01*
X83124938Y-37264586D01*
X83124936Y-37264596D01*
X83104341Y-37499999D01*
X78516103Y-37499999D01*
X78482563Y-37434174D01*
X78447815Y-37365978D01*
X78374157Y-37264596D01*
X78318247Y-37187641D01*
X78318243Y-37187636D01*
X78162363Y-37031756D01*
X78162358Y-37031752D01*
X77984025Y-36902187D01*
X77984024Y-36902186D01*
X77984022Y-36902185D01*
X77866791Y-36842452D01*
X77787606Y-36802104D01*
X77787603Y-36802103D01*
X77577952Y-36733985D01*
X77469086Y-36716742D01*
X77360222Y-36699500D01*
X77139778Y-36699500D01*
X77067201Y-36710995D01*
X76922047Y-36733985D01*
X76712396Y-36802103D01*
X76712393Y-36802104D01*
X76515974Y-36902187D01*
X76337641Y-37031752D01*
X76337635Y-37031757D01*
X76316596Y-37052796D01*
X76255273Y-37086280D01*
X76185581Y-37081294D01*
X76129648Y-37039421D01*
X76112735Y-37008446D01*
X76093797Y-36957671D01*
X76093793Y-36957664D01*
X76007547Y-36842455D01*
X76007544Y-36842452D01*
X75892335Y-36756206D01*
X75892328Y-36756202D01*
X75757482Y-36705908D01*
X75757483Y-36705908D01*
X75697883Y-36699501D01*
X75697881Y-36699500D01*
X75697873Y-36699500D01*
X75697864Y-36699500D01*
X73802129Y-36699500D01*
X73802123Y-36699501D01*
X73742516Y-36705908D01*
X73607671Y-36756202D01*
X73607664Y-36756206D01*
X73492455Y-36842452D01*
X73492452Y-36842455D01*
X73406206Y-36957664D01*
X73406202Y-36957671D01*
X73355908Y-37092517D01*
X73349501Y-37152116D01*
X73349500Y-37152135D01*
X69032034Y-37152135D01*
X68912041Y-37032142D01*
X68733760Y-36902613D01*
X68537410Y-36802567D01*
X68327836Y-36734473D01*
X68250000Y-36722144D01*
X68250000Y-38151517D01*
X68231591Y-38140889D01*
X68078991Y-38100000D01*
X67921009Y-38100000D01*
X67768409Y-38140889D01*
X67750000Y-38151517D01*
X67750000Y-36722144D01*
X67672164Y-36734473D01*
X67672161Y-36734473D01*
X67462589Y-36802567D01*
X67266239Y-36902613D01*
X67087958Y-37032142D01*
X67066788Y-37053312D01*
X67005465Y-37086796D01*
X66935773Y-37081810D01*
X66879840Y-37039937D01*
X66862927Y-37008961D01*
X66843798Y-36957673D01*
X66843793Y-36957664D01*
X66757547Y-36842455D01*
X66757544Y-36842452D01*
X66642335Y-36756206D01*
X66642328Y-36756202D01*
X66507482Y-36705908D01*
X66507483Y-36705908D01*
X66447883Y-36699501D01*
X66447881Y-36699500D01*
X66447873Y-36699500D01*
X66447864Y-36699500D01*
X64552129Y-36699500D01*
X64552123Y-36699501D01*
X64492516Y-36705908D01*
X64357671Y-36756202D01*
X64357664Y-36756206D01*
X64242455Y-36842452D01*
X64242452Y-36842455D01*
X64156206Y-36957664D01*
X64156202Y-36957671D01*
X64105908Y-37092517D01*
X64099501Y-37152116D01*
X64099500Y-37152135D01*
X61500500Y-37152135D01*
X61500500Y-26124500D01*
X61520185Y-26057461D01*
X61572989Y-26011706D01*
X61624500Y-26000500D01*
X92375500Y-26000500D01*
X92442539Y-26020185D01*
G37*
%TD.AperFunction*%
%TD*%
M02*
